<svg width="541" height="34" viewBox="0 0 541 34" fill="none" xmlns="http://www.w3.org/2000/svg">
<path d="M16.1398 33L3.1398 18.48V33H0.299805V1H3.1398V16.6L16.6998 1H20.1798L5.8598 17.44L19.7798 33H16.1398Z" fill="#202020"/>
<path d="M39.1398 33.56C35.2198 33.56 32.2598 32.1733 30.2598 29.4C28.2598 26.6 27.2598 22.4667 27.2598 17C27.2598 11.5333 28.2598 7.41333 30.2598 4.64C32.2598 1.84 35.2198 0.440002 39.1398 0.440002C43.0598 0.440002 46.0198 1.84 48.0198 4.64C50.0198 7.41333 51.0198 11.5333 51.0198 17C51.0198 22.4667 50.0198 26.6 48.0198 29.4C46.0198 32.1733 43.0598 33.56 39.1398 33.56ZM39.1398 30.92C45.1665 30.92 48.1798 26.28 48.1798 17C48.1798 7.72 45.1665 3.08 39.1398 3.08C33.1131 3.08 30.0998 7.72 30.0998 17C30.0998 26.28 33.1131 30.92 39.1398 30.92Z" fill="#202020"/>
<path d="M58.6198 33V1H63.4598L69.8598 20.24H70.1798L76.5798 1H81.2598V33H78.6198V11.32L78.6598 3H78.2998L72.0598 21.72H67.7798L61.5798 3H61.2198L61.2598 11.32V33H58.6198Z" fill="#202020"/>
<path d="M100.74 33.56C96.8198 33.56 93.8598 32.1733 91.8598 29.4C89.8598 26.6 88.8598 22.4667 88.8598 17C88.8598 11.5333 89.8598 7.41333 91.8598 4.64C93.8598 1.84 96.8198 0.440002 100.74 0.440002C104.66 0.440002 107.62 1.84 109.62 4.64C111.62 7.41333 112.62 11.5333 112.62 17C112.62 22.4667 111.62 26.6 109.62 29.4C107.62 32.1733 104.66 33.56 100.74 33.56ZM100.74 30.92C106.766 30.92 109.78 26.28 109.78 17C109.78 7.72 106.766 3.08 100.74 3.08C94.7131 3.08 91.6998 7.72 91.6998 17C91.6998 26.28 94.7131 30.92 100.74 30.92Z" fill="#202020"/>
<g filter="url(#filter0_f_33_27928)">
<circle cx="130.62" cy="17" r="10" fill="#D2FF51"/>
</g>
<path d="M148.62 33V30.36H157.5V3.64H148.62V1H169.18V3.64H160.3V30.36H169.18V33H148.62Z" fill="#202020"/>
<path d="M179.1 33V1H184.14L197.34 31.16H197.66L197.62 25.96V1H200.3V33H195.26L182.06 2.84H181.74L181.78 7.96V33H179.1Z" fill="#202020"/>
<path d="M219.1 33V3.64H208.62V1H232.38V3.64H221.9V33H219.1Z" fill="#202020"/>
<path d="M243.26 33V1H262.22V3.64H246.1V15.64H260.22V18.12H246.1V30.36H261.82V33H243.26Z" fill="#202020"/>
<path d="M272.7 33V1H283.86C286.953 1 289.407 1.81334 291.22 3.44C293.06 5.04 293.98 7.22667 293.98 10C293.98 12.5333 293.153 14.5867 291.5 16.16C289.873 17.7333 287.66 18.6133 284.86 18.8L294.54 33H291.18L281.74 18.84H275.5V33H272.7ZM275.5 16.4H284.02C286.207 16.4 287.94 15.8267 289.22 14.68C290.5 13.5067 291.14 11.9467 291.14 10C291.14 8.05334 290.5 6.50667 289.22 5.36C287.94 4.21334 286.207 3.64 284.02 3.64H275.5V16.4Z" fill="#202020"/>
<path d="M302.3 33V1H307.34L320.54 31.16H320.86L320.82 25.96V1H323.5V33H318.46L305.26 2.84H304.94L304.98 7.96V33H302.3Z" fill="#202020"/>
<path d="M331.74 33L341.38 1H346.02L355.66 33H352.62L348.98 20.84H338.22L334.58 33H331.74ZM343.46 3.36L339.02 18.2H348.18L343.74 3.36H343.46Z" fill="#202020"/>
<path d="M373.1 33V3.64H362.62V1H386.38V3.64H375.9V33H373.1Z" fill="#202020"/>
<path d="M395.02 33V30.36H403.9V3.64H395.02V1H415.58V3.64H406.7V30.36H415.58V33H395.02Z" fill="#202020"/>
<path d="M436.1 33.56C432.18 33.56 429.22 32.1733 427.22 29.4C425.22 26.6 424.22 22.4667 424.22 17C424.22 11.5333 425.22 7.41333 427.22 4.64C429.22 1.84 432.18 0.440002 436.1 0.440002C440.02 0.440002 442.98 1.84 444.98 4.64C446.98 7.41333 447.98 11.5333 447.98 17C447.98 22.4667 446.98 26.6 444.98 29.4C442.98 32.1733 440.02 33.56 436.1 33.56ZM436.1 30.92C442.127 30.92 445.14 26.28 445.14 17C445.14 7.72 442.127 3.08 436.1 3.08C430.073 3.08 427.06 7.72 427.06 17C427.06 26.28 430.073 30.92 436.1 30.92Z" fill="#202020"/>
<path d="M456.3 33V1H461.34L474.54 31.16H474.86L474.82 25.96V1H477.5V33H472.46L459.26 2.84H458.94L458.98 7.96V33H456.3Z" fill="#202020"/>
<path d="M485.74 33L495.38 1H500.02L509.66 33H506.62L502.98 20.84H492.22L488.58 33H485.74ZM497.46 3.36L493.02 18.2H502.18L497.74 3.36H497.46Z" fill="#202020"/>
<path d="M521.58 33V1H524.42V30.36H540.7V33H521.58Z" fill="#202020"/>
<defs>
<filter id="filter0_f_33_27928" x="115.62" y="2" width="30" height="30" filterUnits="userSpaceOnUse" color-interpolation-filters="sRGB">
<feFlood flood-opacity="0" result="BackgroundImageFix"/>
<feBlend mode="normal" in="SourceGraphic" in2="BackgroundImageFix" result="shape"/>
<feGaussianBlur stdDeviation="2.5" result="effect1_foregroundBlur_33_27928"/>
</filter>
</defs>
</svg>
